<svg width="17" height="19" viewBox="0 0 17 19" fill="none" xmlns="http://www.w3.org/2000/svg">
<path d="M13.4946 13.1629C12.8218 13.1629 12.2199 13.432 11.7596 13.8537L5.44796 10.1306C5.49222 9.92424 5.52763 9.7179 5.52763 9.50259C5.52763 9.28728 5.49222 9.08094 5.44796 8.8746L11.6888 5.18738C12.1668 5.63594 12.7953 5.91405 13.4946 5.91405C14.9641 5.91405 16.1503 4.71189 16.1503 3.22265C16.1503 1.73341 14.9641 0.53125 13.4946 0.53125C12.0251 0.53125 10.8389 1.73341 10.8389 3.22265C10.8389 3.43796 10.8744 3.6443 10.9186 3.85065L4.67782 7.53787C4.1998 7.0893 3.57129 6.81119 2.87197 6.81119C1.4025 6.81119 0.216309 8.01335 0.216309 9.50259C0.216309 10.9918 1.4025 12.194 2.87197 12.194C3.57129 12.194 4.1998 11.9159 4.67782 11.4673L10.9806 15.1994C10.9363 15.3878 10.9098 15.5852 10.9098 15.7825C10.9098 17.2269 12.0694 18.4022 13.4946 18.4022C14.9198 18.4022 16.0795 17.2269 16.0795 15.7825C16.0795 14.3381 14.9198 13.1629 13.4946 13.1629Z" fill="black"/>
</svg>
